<mxfile host="app.diagrams.net" agent="Mozilla/5.0 (Windows NT 10.0; Win64; x64) AppleWebKit/537.36 (KHTML, like Gecko) Chrome/121.0.0.0 Safari/537.36" version="28.1.2">
  <diagram name="第 1 页" id="S3tuQBSNMvB5AayZp1tZ">
    <mxGraphModel dx="1577" dy="968" grid="1" gridSize="10" guides="1" tooltips="1" connect="1" arrows="1" fold="1" page="1" pageScale="1" pageWidth="827" pageHeight="1169" math="0" shadow="0">
      <root>
        <mxCell id="0" />
        <mxCell id="1" parent="0" />
        <mxCell id="6kt3sElvy6j7JRls2bbC-30" value="" style="rounded=1;whiteSpace=wrap;html=1;fillColor=none;dashed=1;" parent="1" vertex="1">
          <mxGeometry x="130" y="330" width="830" height="530" as="geometry" />
        </mxCell>
        <mxCell id="6kt3sElvy6j7JRls2bbC-32" value="" style="rounded=1;whiteSpace=wrap;html=1;fillColor=none;dashed=1;" parent="1" vertex="1">
          <mxGeometry x="997.5" y="330" width="565" height="530" as="geometry" />
        </mxCell>
        <mxCell id="6kt3sElvy6j7JRls2bbC-1" value="Integration Model &lt;font size=&quot;1&quot;&gt;(How tables are related)&lt;/font&gt;" style="text;strokeColor=none;fillColor=none;html=1;fontSize=24;fontStyle=1;verticalAlign=middle;align=center;" parent="1" vertex="1">
          <mxGeometry x="145" y="260" width="350" height="50" as="geometry" />
        </mxCell>
        <mxCell id="6kt3sElvy6j7JRls2bbC-2" value="crm_cust_info" style="swimlane;fontStyle=0;childLayout=stackLayout;horizontal=1;startSize=30;horizontalStack=0;resizeParent=1;resizeParentMax=0;resizeLast=0;collapsible=1;marginBottom=0;whiteSpace=wrap;html=1;rounded=1;fillColor=#dae8fc;strokeColor=#6c8ebf;fontSize=24;" parent="1" vertex="1">
          <mxGeometry x="644" y="690" width="210" height="110" as="geometry" />
        </mxCell>
        <mxCell id="6kt3sElvy6j7JRls2bbC-3" value="cst_id" style="text;strokeColor=none;fillColor=none;align=left;verticalAlign=middle;spacingLeft=4;spacingRight=4;overflow=hidden;points=[[0,0.5],[1,0.5]];portConstraint=eastwest;rotatable=0;whiteSpace=wrap;html=1;fontSize=24;" parent="6kt3sElvy6j7JRls2bbC-2" vertex="1">
          <mxGeometry y="30" width="210" height="40" as="geometry" />
        </mxCell>
        <mxCell id="6kt3sElvy6j7JRls2bbC-19" value="cst_key" style="text;strokeColor=none;fillColor=none;align=left;verticalAlign=middle;spacingLeft=4;spacingRight=4;overflow=hidden;points=[[0,0.5],[1,0.5]];portConstraint=eastwest;rotatable=0;whiteSpace=wrap;html=1;fontSize=24;" parent="6kt3sElvy6j7JRls2bbC-2" vertex="1">
          <mxGeometry y="70" width="210" height="40" as="geometry" />
        </mxCell>
        <mxCell id="6kt3sElvy6j7JRls2bbC-6" value="Customer Information" style="text;strokeColor=none;fillColor=none;align=left;verticalAlign=middle;spacingLeft=4;spacingRight=4;overflow=hidden;points=[[0,0.5],[1,0.5]];portConstraint=eastwest;rotatable=0;whiteSpace=wrap;html=1;fontSize=18;" parent="1" vertex="1">
          <mxGeometry x="656" y="660" width="186" height="30" as="geometry" />
        </mxCell>
        <mxCell id="6kt3sElvy6j7JRls2bbC-7" value="crm_prd_info" style="swimlane;fontStyle=0;childLayout=stackLayout;horizontal=1;startSize=30;horizontalStack=0;resizeParent=1;resizeParentMax=0;resizeLast=0;collapsible=1;marginBottom=0;whiteSpace=wrap;html=1;rounded=1;fillColor=#dae8fc;strokeColor=#6c8ebf;fontSize=24;" parent="1" vertex="1">
          <mxGeometry x="685" y="420" width="210" height="70" as="geometry" />
        </mxCell>
        <mxCell id="6kt3sElvy6j7JRls2bbC-8" value="prd_key" style="text;strokeColor=none;fillColor=none;align=left;verticalAlign=middle;spacingLeft=4;spacingRight=4;overflow=hidden;points=[[0,0.5],[1,0.5]];portConstraint=eastwest;rotatable=0;whiteSpace=wrap;html=1;fontSize=24;" parent="6kt3sElvy6j7JRls2bbC-7" vertex="1">
          <mxGeometry y="30" width="210" height="40" as="geometry" />
        </mxCell>
        <mxCell id="6kt3sElvy6j7JRls2bbC-9" value="Current &amp;amp; History Product Information" style="text;strokeColor=none;fillColor=none;align=left;verticalAlign=middle;spacingLeft=4;spacingRight=4;overflow=hidden;points=[[0,0.5],[1,0.5]];portConstraint=eastwest;rotatable=0;whiteSpace=wrap;html=1;fontSize=18;" parent="1" vertex="1">
          <mxGeometry x="630" y="390" width="320" height="30" as="geometry" />
        </mxCell>
        <mxCell id="6kt3sElvy6j7JRls2bbC-10" value="crm_sales_details" style="swimlane;fontStyle=0;childLayout=stackLayout;horizontal=1;startSize=30;horizontalStack=0;resizeParent=1;resizeParentMax=0;resizeLast=0;collapsible=1;marginBottom=0;whiteSpace=wrap;html=1;rounded=1;fillColor=#dae8fc;strokeColor=#6c8ebf;fontSize=24;" parent="1" vertex="1">
          <mxGeometry x="215" y="470" width="210" height="110" as="geometry" />
        </mxCell>
        <mxCell id="6kt3sElvy6j7JRls2bbC-11" value="sls_prd_key" style="text;strokeColor=none;fillColor=none;align=left;verticalAlign=middle;spacingLeft=4;spacingRight=4;overflow=hidden;points=[[0,0.5],[1,0.5]];portConstraint=eastwest;rotatable=0;whiteSpace=wrap;html=1;fontSize=24;" parent="6kt3sElvy6j7JRls2bbC-10" vertex="1">
          <mxGeometry y="30" width="210" height="40" as="geometry" />
        </mxCell>
        <mxCell id="6kt3sElvy6j7JRls2bbC-13" value="cst_id" style="text;strokeColor=none;fillColor=none;align=left;verticalAlign=middle;spacingLeft=4;spacingRight=4;overflow=hidden;points=[[0,0.5],[1,0.5]];portConstraint=eastwest;rotatable=0;whiteSpace=wrap;html=1;fontSize=24;" parent="6kt3sElvy6j7JRls2bbC-10" vertex="1">
          <mxGeometry y="70" width="210" height="40" as="geometry" />
        </mxCell>
        <mxCell id="6kt3sElvy6j7JRls2bbC-12" value="Transactional Records about Sales &amp;amp; Orders" style="text;strokeColor=none;fillColor=none;align=left;verticalAlign=middle;spacingLeft=4;spacingRight=4;overflow=hidden;points=[[0,0.5],[1,0.5]];portConstraint=eastwest;rotatable=0;whiteSpace=wrap;html=1;fontSize=18;" parent="1" vertex="1">
          <mxGeometry x="130" y="440" width="380" height="30" as="geometry" />
        </mxCell>
        <mxCell id="6kt3sElvy6j7JRls2bbC-14" style="edgeStyle=orthogonalEdgeStyle;rounded=0;orthogonalLoop=1;jettySize=auto;html=1;entryX=0;entryY=0.5;entryDx=0;entryDy=0;" parent="1" source="6kt3sElvy6j7JRls2bbC-13" target="6kt3sElvy6j7JRls2bbC-3" edge="1">
          <mxGeometry relative="1" as="geometry" />
        </mxCell>
        <mxCell id="6kt3sElvy6j7JRls2bbC-15" style="edgeStyle=orthogonalEdgeStyle;rounded=0;orthogonalLoop=1;jettySize=auto;html=1;entryX=0;entryY=0.5;entryDx=0;entryDy=0;" parent="1" source="6kt3sElvy6j7JRls2bbC-11" target="6kt3sElvy6j7JRls2bbC-8" edge="1">
          <mxGeometry relative="1" as="geometry" />
        </mxCell>
        <mxCell id="6kt3sElvy6j7JRls2bbC-16" value="erp_cust_az12" style="swimlane;fontStyle=0;childLayout=stackLayout;horizontal=1;startSize=30;horizontalStack=0;resizeParent=1;resizeParentMax=0;resizeLast=0;collapsible=1;marginBottom=0;whiteSpace=wrap;html=1;rounded=1;fillColor=#ffe6cc;strokeColor=#d79b00;fontSize=24;" parent="1" vertex="1">
          <mxGeometry x="1165" y="580" width="210" height="70" as="geometry" />
        </mxCell>
        <mxCell id="6kt3sElvy6j7JRls2bbC-17" value="cid" style="text;strokeColor=none;fillColor=none;align=left;verticalAlign=middle;spacingLeft=4;spacingRight=4;overflow=hidden;points=[[0,0.5],[1,0.5]];portConstraint=eastwest;rotatable=0;whiteSpace=wrap;html=1;fontSize=24;" parent="6kt3sElvy6j7JRls2bbC-16" vertex="1">
          <mxGeometry y="30" width="210" height="40" as="geometry" />
        </mxCell>
        <mxCell id="6kt3sElvy6j7JRls2bbC-18" value="Extra Customer Information (Birthdate)" style="text;strokeColor=none;fillColor=none;align=left;verticalAlign=middle;spacingLeft=4;spacingRight=4;overflow=hidden;points=[[0,0.5],[1,0.5]];portConstraint=eastwest;rotatable=0;whiteSpace=wrap;html=1;fontSize=18;" parent="1" vertex="1">
          <mxGeometry x="1110" y="550" width="320" height="30" as="geometry" />
        </mxCell>
        <mxCell id="6kt3sElvy6j7JRls2bbC-21" style="edgeStyle=orthogonalEdgeStyle;rounded=0;orthogonalLoop=1;jettySize=auto;html=1;entryX=1;entryY=0.5;entryDx=0;entryDy=0;" parent="1" source="6kt3sElvy6j7JRls2bbC-17" target="6kt3sElvy6j7JRls2bbC-19" edge="1">
          <mxGeometry relative="1" as="geometry" />
        </mxCell>
        <mxCell id="6kt3sElvy6j7JRls2bbC-22" value="erp_loc_a101" style="swimlane;fontStyle=0;childLayout=stackLayout;horizontal=1;startSize=30;horizontalStack=0;resizeParent=1;resizeParentMax=0;resizeLast=0;collapsible=1;marginBottom=0;whiteSpace=wrap;html=1;rounded=1;fillColor=#ffe6cc;strokeColor=#d79b00;fontSize=24;" parent="1" vertex="1">
          <mxGeometry x="1165" y="730" width="210" height="70" as="geometry" />
        </mxCell>
        <mxCell id="6kt3sElvy6j7JRls2bbC-23" value="cid" style="text;strokeColor=none;fillColor=none;align=left;verticalAlign=middle;spacingLeft=4;spacingRight=4;overflow=hidden;points=[[0,0.5],[1,0.5]];portConstraint=eastwest;rotatable=0;whiteSpace=wrap;html=1;fontSize=24;" parent="6kt3sElvy6j7JRls2bbC-22" vertex="1">
          <mxGeometry y="30" width="210" height="40" as="geometry" />
        </mxCell>
        <mxCell id="6kt3sElvy6j7JRls2bbC-24" value="Location of Customers (Country)" style="text;strokeColor=none;fillColor=none;align=left;verticalAlign=middle;spacingLeft=4;spacingRight=4;overflow=hidden;points=[[0,0.5],[1,0.5]];portConstraint=eastwest;rotatable=0;whiteSpace=wrap;html=1;fontSize=18;" parent="1" vertex="1">
          <mxGeometry x="1140" y="700" width="280" height="30" as="geometry" />
        </mxCell>
        <mxCell id="6kt3sElvy6j7JRls2bbC-25" style="edgeStyle=orthogonalEdgeStyle;rounded=0;orthogonalLoop=1;jettySize=auto;html=1;entryX=1;entryY=0.5;entryDx=0;entryDy=0;" parent="1" source="6kt3sElvy6j7JRls2bbC-23" target="6kt3sElvy6j7JRls2bbC-19" edge="1">
          <mxGeometry relative="1" as="geometry" />
        </mxCell>
        <mxCell id="6kt3sElvy6j7JRls2bbC-26" value="erp_px_cat_g1v2" style="swimlane;fontStyle=0;childLayout=stackLayout;horizontal=1;startSize=30;horizontalStack=0;resizeParent=1;resizeParentMax=0;resizeLast=0;collapsible=1;marginBottom=0;whiteSpace=wrap;html=1;rounded=1;fillColor=#ffe6cc;strokeColor=#d79b00;fontSize=24;" parent="1" vertex="1">
          <mxGeometry x="1165" y="420" width="210" height="70" as="geometry" />
        </mxCell>
        <mxCell id="6kt3sElvy6j7JRls2bbC-27" value="id" style="text;strokeColor=none;fillColor=none;align=left;verticalAlign=middle;spacingLeft=4;spacingRight=4;overflow=hidden;points=[[0,0.5],[1,0.5]];portConstraint=eastwest;rotatable=0;whiteSpace=wrap;html=1;fontSize=24;" parent="6kt3sElvy6j7JRls2bbC-26" vertex="1">
          <mxGeometry y="30" width="210" height="40" as="geometry" />
        </mxCell>
        <mxCell id="6kt3sElvy6j7JRls2bbC-28" value="Products Category" style="text;strokeColor=none;fillColor=none;align=center;verticalAlign=middle;spacingLeft=4;spacingRight=4;overflow=hidden;points=[[0,0.5],[1,0.5]];portConstraint=eastwest;rotatable=0;whiteSpace=wrap;html=1;fontSize=18;" parent="1" vertex="1">
          <mxGeometry x="1110" y="390" width="320" height="30" as="geometry" />
        </mxCell>
        <mxCell id="6kt3sElvy6j7JRls2bbC-29" style="edgeStyle=orthogonalEdgeStyle;rounded=0;orthogonalLoop=1;jettySize=auto;html=1;entryX=1;entryY=0.5;entryDx=0;entryDy=0;" parent="1" source="6kt3sElvy6j7JRls2bbC-27" target="6kt3sElvy6j7JRls2bbC-8" edge="1">
          <mxGeometry relative="1" as="geometry" />
        </mxCell>
        <mxCell id="6kt3sElvy6j7JRls2bbC-31" value="&lt;font style=&quot;font-size: 30px;&quot;&gt;CRM&lt;/font&gt;" style="rounded=1;whiteSpace=wrap;html=1;fillColor=#dae8fc;strokeColor=#6c8ebf;" parent="1" vertex="1">
          <mxGeometry x="464" y="310" width="180" height="50" as="geometry" />
        </mxCell>
        <mxCell id="6kt3sElvy6j7JRls2bbC-35" value="&lt;font style=&quot;font-size: 30px;&quot;&gt;ERP&lt;/font&gt;" style="rounded=1;whiteSpace=wrap;html=1;fillColor=#ffe6cc;strokeColor=#d79b00;" parent="1" vertex="1">
          <mxGeometry x="1190" y="310" width="180" height="50" as="geometry" />
        </mxCell>
        <mxCell id="XPfr1_APzEKyO1eKcTSN-1" value="PRODUCT" style="text;html=1;strokeColor=#b85450;fillColor=#f8cecc;align=center;verticalAlign=middle;whiteSpace=wrap;overflow=hidden;fontSize=18;fontStyle=1" parent="1" vertex="1">
          <mxGeometry x="690" y="490" width="200" height="30" as="geometry" />
        </mxCell>
        <mxCell id="XPfr1_APzEKyO1eKcTSN-2" value="PRODUCT" style="text;html=1;strokeColor=#b85450;fillColor=#f8cecc;align=center;verticalAlign=middle;whiteSpace=wrap;overflow=hidden;fontSize=18;fontStyle=1" parent="1" vertex="1">
          <mxGeometry x="1170" y="490" width="200" height="30" as="geometry" />
        </mxCell>
        <mxCell id="XPfr1_APzEKyO1eKcTSN-3" value="CUSTOMER" style="text;html=1;strokeColor=#82b366;fillColor=#d5e8d4;align=center;verticalAlign=middle;whiteSpace=wrap;overflow=hidden;fontSize=18;fontStyle=1" parent="1" vertex="1">
          <mxGeometry x="650" y="800" width="200" height="30" as="geometry" />
        </mxCell>
        <mxCell id="XPfr1_APzEKyO1eKcTSN-4" value="CUSTOMER" style="text;html=1;strokeColor=#82b366;fillColor=#d5e8d4;align=center;verticalAlign=middle;whiteSpace=wrap;overflow=hidden;fontSize=18;fontStyle=1" parent="1" vertex="1">
          <mxGeometry x="1170" y="650" width="200" height="30" as="geometry" />
        </mxCell>
        <mxCell id="XPfr1_APzEKyO1eKcTSN-5" value="CUSTOMER" style="text;html=1;strokeColor=#82b366;fillColor=#d5e8d4;align=center;verticalAlign=middle;whiteSpace=wrap;overflow=hidden;fontSize=18;fontStyle=1" parent="1" vertex="1">
          <mxGeometry x="1170" y="800" width="200" height="30" as="geometry" />
        </mxCell>
        <mxCell id="XPfr1_APzEKyO1eKcTSN-7" value="SALES" style="text;html=1;strokeColor=#9673a6;fillColor=#e1d5e7;align=center;verticalAlign=middle;whiteSpace=wrap;overflow=hidden;fontSize=18;fontStyle=1" parent="1" vertex="1">
          <mxGeometry x="220" y="580" width="200" height="30" as="geometry" />
        </mxCell>
      </root>
    </mxGraphModel>
  </diagram>
</mxfile>
